# This file uses centimeters as units for non-parametric coordinates.

mtllib warehouse 3 compactor.mtl
g default
v 289.971310 -927.816816 8501.433662
v 530.584680 -927.816816 8501.433662
v 516.668957 2398.578358 8272.430728
v 743.623033 2225.577366 8272.430728
v 516.668957 2398.578358 8098.466172
v 743.623033 2225.577366 8098.466172
v 289.971310 -927.816816 8316.997968
v 530.584680 -927.816816 8316.997968
v 8359.326088 -927.816816 8316.997968
v 8359.326088 -927.816816 8501.433662
v 8127.940092 2237.118364 8098.466172
v 8127.940092 2237.118364 8272.430728
v 516.668957 2398.578358 5360.686813
v 743.623033 2398.578358 5360.686813
v 530.584680 -927.816816 5414.447519
v 289.971310 -927.816816 5414.447519
v 7909.913190 2252.369045 8098.466172
v 8128.176902 -927.816816 8316.997968
v 8128.176902 -927.816816 8501.433662
v 7909.913190 2252.369045 8272.430728
v 7909.913190 2049.651280 662.480099
v 8128.176902 -927.816816 433.478572
v 8127.940092 2049.651280 662.480099
v 8359.326088 -927.816816 433.478572
v 8127.940092 2049.651280 874.506745
v 7909.913190 2049.651280 874.506745
v 8128.176902 -927.816816 658.265049
v 8359.326088 -927.816816 658.265049
v 744.992433 2398.578358 874.506745
v 532.036402 -927.816816 658.265049
v 744.992433 2398.578358 662.480099
v 532.036402 -927.816816 433.478572
v 1040.063222 2398.578358 874.506745
v 844.865994 -927.816816 658.265049
v 844.865994 -927.816816 433.478572
v 1040.063222 2398.578358 662.480099
v 733.839661 2398.578358 4083.149246
v 520.212382 -927.816816 3733.917837
v 438.768929 2398.578358 4083.149246
v 207.382761 -927.816816 3733.917837
v 520.212382 1277.193376 3733.917837
v 844.865994 1277.193376 658.265049
v 8128.176902 1277.193376 658.265049
v 8128.176902 1277.193376 8316.997968
v 530.584680 1277.193376 8316.997968
v 530.584680 1277.193376 5414.447519
v 289.971310 1277.193376 5414.447519
v 289.971310 1277.193376 8316.997968
v 289.971310 1277.193376 8501.433662
v 530.584680 1277.193376 8501.433662
v 8128.176902 1277.193376 8501.433662
v 8359.326088 1277.193376 8501.433662
v 8359.326088 1277.193376 8316.997968
v 8359.326088 1277.193376 658.265049
v 8359.326088 1277.193376 433.478572
v 8128.176902 1277.193376 433.478572
v 844.865994 1277.193376 433.478572
v 532.036402 1277.193376 433.478572
v 532.036402 1277.193376 658.265049
v 207.382746 1277.193376 3733.917837
v 6709.870538 2413.829236 8272.430728
v 6709.870538 2413.829236 8098.466172
v 6709.870538 1202.911343 8316.997968
v 6772.955992 -927.816816 8316.997968
v 6772.955992 -927.816816 8501.433662
v 6709.870538 1202.911343 8501.433662
v 5760.040711 2225.577366 8272.430728
v 5760.040711 2225.577366 8098.466172
v 5741.632430 1202.911343 8316.997968
v 5720.538012 -927.816816 8316.997968
v 5720.538012 -927.816816 8501.433662
v 5741.632430 1202.911343 8501.433662
v 8304.569818 134.040204 709.436641
v 8304.569818 134.040204 8265.283225
v 8304.569818 134.040204 8447.240264
v 8076.525316 134.040204 8447.240264
v 6740.356571 134.040204 8545.270602
v 6740.356571 134.040204 8363.312859
v 8076.525316 134.040204 8265.283225
v 8076.525316 134.040204 709.436641
v 891.058624 134.040204 709.436641
v 570.766371 134.040204 3650.118480
v 262.139289 134.040204 3650.118480
v 582.431542 134.040204 709.436641
v 582.431542 134.040204 487.670563
v 891.058624 134.040204 487.670563
v 8076.525316 134.040204 487.670563
v 8304.569818 134.040204 487.670563
v 547.584838 272.931856 8188.988078
v 547.584838 272.931856 8356.052082
v 765.534811 272.931856 8356.052082
v 5717.669678 272.931856 8568.666205
v 5717.669678 272.931856 8401.602904
v 765.534811 272.931856 8188.988078
v 765.534811 272.931856 5677.314730
v 547.584838 272.931856 5677.314730
vt 0.037940 0.036414
vt 0.065781 0.036414
vt 0.065781 0.057798
vt 0.037940 0.057798
vt 0.010131 0.030936
vt 0.039647 0.030936
vt 0.039647 0.008264
vt 0.010131 0.008264
vt 0.676299 0.030936
vt 0.676299 0.008264
vt 0.681145 0.036414
vt 0.681145 0.057798
vt 0.746219 0.456853
vt 0.760517 0.456853
vt 0.742764 0.517995
vt 0.729278 0.517995
vt 0.729278 0.508562
vt 0.746219 0.456853
vt 0.521208 0.456853
vt 0.136150 0.661142
vt 0.065781 0.394334
vt 0.037940 0.394334
vt 0.154378 0.661142
vt 0.010131 0.387725
vt 0.039647 0.387725
vt 0.971645 0.008264
vt 0.517041 0.517995
vt 0.170517 0.716774
vt 0.971645 0.030936
vt 1.000000 0.030936
vt 1.000000 0.008264
vt 0.944870 0.057798
vt 0.517041 0.517995
vt 0.153324 0.726923
vt 0.944870 0.036414
vt 0.971616 0.036414
vt 0.971616 0.057798
vt 0.971616 0.945788
vt 0.521208 0.456853
vt 0.147497 0.857825
vt 0.944870 0.945788
vt 0.971645 0.972369
vt 1.000000 0.972369
vt 0.971616 0.971851
vt 0.152501 0.456853
vt 0.161256 0.857825
vt 0.944870 0.971851
vt 0.971645 1.000000
vt 1.000000 1.000000
vt 0.150022 0.247347
vt 0.177559 0.912510
vt 0.102145 0.971851
vt 0.102145 0.945788
vt 0.078200 0.972369
vt 0.167461 0.302552
vt 0.150041 0.302552
vt 0.078200 1.000000
vt 0.131553 0.247347
vt 0.039825 0.972369
vt 0.039825 1.000000
vt 0.065949 0.971851
vt 0.065949 0.945788
vt 0.028384 0.551372
vt 0.064581 0.551372
vt 0.038375 0.594301
vt 0.000000 0.594301
vt 0.169264 0.517995
vt 0.152827 0.517995
vt 0.135075 0.456853
vt 0.152501 0.456853
vt 0.154378 0.661142
vt 0.010131 0.387725
vt 0.039647 0.387725
vt 0.169264 0.517995
vt 0.170517 0.716774
vt 0.068469 0.355413
vt 0.041733 0.355413
vt 0.418004 0.517995
vt 0.164581 0.912510
vt 0.161256 0.857825
vt 0.044576 0.604602
vt 0.006717 0.604602
vt 0.000000 0.594301
vt 0.038375 0.594301
vt 0.150022 0.247347
vt 0.167461 0.302552
vt 0.716361 0.327489
vt 0.731957 0.247347
vt 0.390931 0.456853
vt 0.390931 0.456853
vt 0.797661 0.057798
vt 0.797661 0.036414
vt 0.418004 0.517995
vt 0.152501 0.336629
vt 0.156468 0.394525
vt 0.384434 0.394525
vt 0.390931 0.336629
vt 0.736296 0.402098
vt 0.731957 0.247347
vt 0.716361 0.327489
vt 0.550544 0.716774
vt 0.549150 0.656785
vt 0.756952 0.247347
vt 0.739937 0.327489
vt 0.549150 0.656785
vt 0.150022 0.089762
vt 0.154149 0.165650
vt 0.728266 0.165650
vt 0.731957 0.089762
vt 0.177559 0.913379
vt 0.716475 0.901831
vt 0.732607 0.857825
vt 0.732607 0.857825
vt 0.716475 0.901831
vt 0.749377 0.857825
vt 0.550544 0.716774
vt 0.713411 0.718346
vt 0.805400 0.008264
vt 0.805400 0.030936
vt 0.678887 0.030936
vt 0.678887 0.008264
vt 0.675948 0.000000
vt 0.675948 0.020536
vt 0.801401 0.002876
vt 0.801401 0.025243
vt 0.732293 0.901831
vt 0.150022 0.089762
vt 0.797661 0.030936
vt 0.797661 0.008264
vt 0.154149 0.165650
vt 0.154378 0.531796
vt 0.547552 0.531796
vt 0.154378 0.531796
vt 0.136150 0.531796
vt 0.547552 0.531796
vt 0.728790 0.792701
vt 0.541586 0.402098
vt 0.541586 0.402098
vt 0.736296 0.402098
vt 0.749247 0.402098
vt 0.152501 0.336629
vt 0.156468 0.394525
vt 0.139276 0.394525
vt 0.135075 0.336629
vt 0.729946 0.661142
vt 0.747457 0.661142
vt 0.384434 0.394525
vt 0.390931 0.336629
vt 0.729928 0.717451
vt 0.172177 0.602232
vt 0.746219 0.336629
vt 0.760517 0.336629
vt 0.547334 0.602232
vt 0.155666 0.602232
vt 0.172177 0.602232
vt 0.547334 0.602232
vt 0.743309 0.594085
vt 0.726033 0.594085
vt 0.729946 0.531796
vt 0.747457 0.531796
vt 0.622500 0.656785
vt 0.622500 0.727817
vt 0.713411 0.718346
vt 0.729946 0.661142
vt 0.627279 0.531796
vt 0.624810 0.594085
vt 0.726033 0.594085
vt 0.729946 0.531796
vt 0.624810 0.594085
vt 0.627279 0.531796
vt 0.622500 0.727817
vt 0.622500 0.656785
vt 0.161256 0.732208
vt 0.165114 0.792701
vt 0.728790 0.792701
vt 0.732607 0.732208
vt 0.147497 0.732208
vt 0.161256 0.732208
vt 0.135928 0.165650
vt 0.131553 0.089762
vt 0.728266 0.165650
vt 0.731957 0.089762
vt 0.752926 0.165650
vt 0.756952 0.089762
vt 0.521208 0.336629
vt 0.749377 0.732208
vt 0.746219 0.336629
vt 0.521208 0.336629
vt 0.732607 0.732208
vt 0.151540 0.792701
vt 0.165114 0.792701
vt 0.745334 0.792701
vn 0.046469 0.069957 0.996467
vn -0.002408 0.106333 0.994328
vn 0.003283 0.225586 0.974218
vn 0.074155 0.200417 0.976900
vn 0.606229 0.795290 0.000000
vn 0.032976 0.999456 0.000000
vn 0.171453 0.985112 0.012610
vn 0.374370 0.926870 0.027535
vn 0.000000 -1.000000 0.000000
vn 0.000000 -1.000000 0.000000
vn 0.000000 -1.000000 0.000000
vn 0.000000 -1.000000 0.000000
vn 0.998273 0.058753 0.000000
vn 0.997981 0.063509 -0.001096
vn 0.966167 0.257896 -0.003226
vn 0.972156 0.234333 0.000000
vn -0.999046 -0.043666 0.000000
vn -0.998686 -0.051255 0.000000
vn -0.980172 0.198150 0.000000
vn -0.980172 0.198150 0.000000
vn 0.000000 -1.000000 0.000000
vn 0.000000 -1.000000 0.000000
vn 0.007534 -0.120887 -0.992638
vn -0.001571 -0.216307 -0.976324
vn -0.001571 -0.216307 -0.976324
vn 0.008623 -0.109349 -0.993966
vn 0.000000 1.000000 0.000000
vn 0.000000 1.000000 0.000000
vn -0.008528 0.108403 0.994070
vn 0.001643 0.226153 0.974090
vn 0.355991 0.934023 0.029511
vn 0.355991 0.934023 0.029511
vn 0.979281 -0.202409 -0.006208
vn 0.998849 0.047882 -0.002673
vn 0.994822 -0.101518 -0.004809
vn 0.979281 -0.202409 -0.006208
vn 0.000000 -1.000000 0.000000
vn 0.000000 -1.000000 0.000000
vn -0.980172 0.198150 0.000000
vn -0.995582 0.093898 0.000000
vn 0.002277 0.071017 -0.997473
vn 0.005732 0.235679 -0.971814
vn 0.000000 0.284232 -0.958756
vn 0.000000 0.074398 -0.997229
vn 0.000000 -1.000000 0.000000
vn 0.000000 -1.000000 0.000000
vn 0.000000 -1.000000 0.000000
vn 0.000000 -1.000000 0.000000
vn 0.006913 0.207344 0.978244
vn 0.018231 0.089158 0.995851
vn 0.003290 0.068857 0.997621
vn 0.007879 0.232046 0.972673
vn 0.047048 0.998620 -0.023317
vn 0.123657 0.992325 0.000000
vn 0.069778 0.997563 0.000000
vn 0.035761 0.999013 -0.026345
vn -0.998423 -0.056119 0.001168
vn -0.970188 -0.242331 0.003301
vn -0.970188 -0.242331 0.003301
vn -0.998462 -0.055420 0.001160
vn 0.033946 0.999080 -0.026212
vn 0.041894 0.999027 -0.013806
vn 0.997962 0.063806 -0.001083
vn 0.966061 0.258293 -0.003226
vn 0.000000 -1.000000 0.000000
vn 0.000000 -1.000000 0.000000
vn 0.000000 1.000000 0.000000
vn 0.049169 0.998790 0.000000
vn -0.993579 0.072131 -0.087164
vn -0.971596 0.216456 -0.095649
vn -0.982442 0.186570 0.000000
vn -0.998788 0.049219 0.000000
vn 0.000000 -1.000000 0.000000
vn 0.000000 -1.000000 0.000000
vn 0.998045 0.062494 0.000000
vn 0.957946 0.286947 0.000000
vn -0.002248 -0.064381 0.997923
vn -0.005490 -0.222692 0.974873
vn -0.005490 -0.222692 0.974873
vn -0.002286 -0.066245 0.997801
vn 0.048642 0.998816 0.000000
vn 0.030533 0.999534 -0.000000
vn 0.002250 0.072058 -0.997398
vn 0.005662 0.234311 -0.972145
vn 0.000000 -1.000000 0.000000
vn 0.000000 -1.000000 0.000000
vn 0.000000 -1.000000 0.000000
vn 0.000000 -1.000000 0.000000
vn 0.000000 0.065538 -0.997850
vn 0.000000 0.200084 -0.979779
vn 0.000000 1.000000 0.000000
vn 0.000000 1.000000 -0.000000
vn 0.992561 -0.064062 0.103535
vn 0.974428 -0.202288 0.097822
vn 0.974428 -0.202288 0.097822
vn 0.983003 -0.153928 0.100058
vn 0.000000 1.000000 -0.000000
vn 0.000000 1.000000 -0.000000
vn -0.981346 0.164243 -0.099915
vn -0.971286 0.217018 -0.097507
vn 0.000000 -1.000000 0.000000
vn 0.000000 -1.000000 0.000000
vn 0.993357 -0.043617 0.106487
vn 0.994303 -0.000234 0.106588
vn 0.994303 -0.000242 0.106588
vn 0.993357 -0.043617 0.106487
vn 0.000000 -0.048135 0.998841
vn 0.000000 -0.000198 1.000000
vn 0.000000 -0.000188 1.000000
vn 0.000000 -0.048135 0.998841
vn -0.998819 -0.048585 0.000000
vn -1.000000 -0.000263 0.000000
vn -1.000000 -0.000263 0.000000
vn -0.998819 -0.048585 0.000000
vn 0.021020 -0.000014 -0.999779
vn 0.021024 0.001006 -0.999779
vn 1.000000 0.000425 0.000000
vn 1.000000 0.000375 0.000000
vn 0.000000 -0.253221 -0.967408
vn 0.000000 -0.253221 -0.967408
vn 0.000000 0.000518 -1.000000
vn 0.000000 -0.000239 -1.000000
vn -1.000000 -0.000362 0.000000
vn -1.000000 -0.000352 0.000000
vn -1.000000 -0.000397 0.000000
vn 0.000000 -0.000353 1.000000
vn -0.020789 -0.000016 0.999784
vn -0.021086 -0.002094 0.999775
vn 0.000000 0.000202 1.000000
vn 0.032819 0.000412 0.999461
vn 0.027766 0.016922 0.999471
vn 0.000000 0.050970 0.998700
vn 0.998673 0.051497 0.000000
vn 0.998673 0.051498 0.000000
vn 1.000000 0.000260 0.000000
vn 1.000000 0.000270 0.000000
vn 1.000000 0.000257 0.000000
vn 0.998673 0.051498 0.000000
vn 1.000000 0.000270 0.000000
vn 0.998673 0.051498 0.000000
vn 0.000000 0.050969 -0.998700
vn 0.000000 0.000188 -1.000000
vn 0.000000 0.000202 -1.000000
vn 0.000000 0.050969 -0.998700
vn 0.000000 0.000175 -1.000000
vn 0.000000 0.050969 -0.998700
vn 0.000000 0.000196 -1.000000
vn 0.000000 0.050969 -0.998700
vn -0.994664 0.047554 -0.091549
vn -0.994661 0.000215 -0.103197
vn -1.000000 0.000262 0.000000
vn -0.998876 0.047406 0.000000
vn -0.994303 0.000255 -0.106588
vn -0.993179 0.047540 -0.106468
vn 0.000000 0.078673 0.996900
vn 0.000000 -0.000264 1.000000
vn 0.000000 0.000174 1.000000
vn 0.000000 0.078673 0.996900
vn 0.982521 -0.186033 -0.006695
vn 0.982521 -0.186033 -0.006695
vn 0.982521 -0.186033 -0.006695
vn 0.982521 -0.186033 -0.006695
vn 0.000000 -1.000000 -0.000000
vn 0.000000 -1.000000 -0.000000
vn 0.000000 -1.000000 -0.000000
vn 0.000000 -1.000000 -0.000000
vn -0.979737 0.193108 0.053155
vn -0.979737 0.193108 0.053155
vn -0.979737 0.193108 0.053155
vn -0.979737 0.193108 0.053155
vn 0.000000 1.000000 -0.000000
vn 0.000000 1.000000 -0.000000
vn 0.000000 1.000000 -0.000000
vn 0.000000 1.000000 -0.000000
vn 0.133344 0.991070 0.000000
vn 0.133344 0.991070 0.000000
vn -0.020018 -0.105570 -0.994210
vn -0.006548 -0.196674 -0.980447
vn -0.006548 -0.196674 -0.980447
vn -0.022863 -0.086059 -0.996028
vn -0.036399 -0.003985 -0.999329
vn -0.035931 0.000198 -0.999354
vn -0.036010 -0.000507 -0.999351
vn -0.036399 -0.003985 -0.999329
vn 0.000000 -1.000000 0.000000
vn 0.000000 -1.000000 0.000000
vn 0.035967 -0.000712 0.999353
vn 0.036399 0.006317 0.999317
vn 0.006849 0.205707 0.978590
vn 0.020175 0.109842 0.993744
vn 0.999668 -0.025759 0.000000
vn 0.999668 -0.025759 0.000000
vn 0.999960 -0.008985 0.000000
vn 0.999948 -0.010157 0.000000
vn -0.999562 -0.029596 0.000000
vn -0.999562 -0.029594 0.000000
vn -0.999529 -0.030686 0.000000
vn -0.999529 -0.030686 0.000000
vn 0.018859 -0.192152 -0.981184
vn 0.018859 -0.192152 -0.981184
vn 0.018859 -0.192152 -0.981184
vn 0.018859 -0.192152 -0.981184
vn 0.000000 -1.000000 0.000000
vn 0.000000 -1.000000 0.000000
vn 0.000000 -1.000000 0.000000
vn 0.000000 -1.000000 0.000000
vn -0.019727 0.200992 0.979394
vn -0.019727 0.200992 0.979394
vn -0.019727 0.200992 0.979394
vn -0.019727 0.200992 0.979394
vn -0.194414 0.980920 0.000000
vn -0.194414 0.980920 0.000000
vn -0.194414 0.980920 0.000000
vn -0.194414 0.980920 0.000000
vn -0.999593 -0.028510 0.000000
vn -0.999593 -0.028510 0.000000
vn 0.000000 -0.073109 0.997324
vn 0.000000 -0.073109 0.997324
vn -0.977751 0.209771 0.000000
vn -0.977751 0.209771 0.000000
vn 0.000000 0.120198 0.992750
vn -0.018203 0.045813 0.998784
vn -0.020946 0.034540 0.999184
vn 0.999997 0.002389 0.000000
vn 0.999997 0.002389 0.000000
vn 0.020955 -0.020092 -0.999579
vn 0.020955 -0.020092 -0.999579
vn 0.981389 -0.192028 0.000000
vn 0.981389 -0.192028 0.000000
vn 0.000000 0.213855 -0.976865
vn 0.000000 0.213855 -0.976865
vn -0.977751 0.209771 0.000000
s 1
g compactor
usemtl lambert8SG
f 49/20/1 50/23/2 4/28/3 3/34/4
s 2
f 3/1/5 4/2/6 6/3/7 5/4/8
s 3
f 7/5/9 8/6/10 2/7/11 1/8/12
s 4
f 52/40/13 53/46/14 11/51/15 12/79/16
s 5
f 48/13/17 49/14/18 3/15/19 5/16/20
s 3
f 2/7/11 8/6/10 70/9/21 71/10/22
s 6
f 45/71/23 6/75/24 68/101/25 69/102/26
s 2
f 6/3/7 4/2/6 67/11/27 68/12/28
s 1
f 4/28/3 50/23/2 72/105/29 67/116/30
s 2
f 5/4/8 6/3/7 14/21/31 13/22/32
s 7
f 6/17/33 45/18/34 46/19/35 14/27/36
s 3
f 8/6/10 7/5/9 16/24/37 15/25/38
s 5
f 48/13/17 5/16/20 13/33/39 47/39/40
s 8
f 56/50/41 21/55/42 23/56/43 55/58/44
s 9
f 19/26/45 18/29/46 9/30/47 10/31/48
s 10
f 20/117/49 51/145/50 52/146/51 12/149/52
s 11
f 17/32/53 20/35/54 12/36/55 11/37/56
s 12
f 44/80/57 17/110/58 26/111/59 43/112/60
s 11
f 17/32/53 11/37/56 25/38/61 26/41/62
s 4
f 11/51/15 53/46/14 54/113/63 25/114/64
s 9
f 9/30/47 18/29/46 27/42/65 28/43/66
s 11
f 26/41/62 25/38/61 23/44/67 21/47/68
s 13
f 59/45/69 29/67/70 31/68/71 58/69/72
s 9
f 28/43/66 27/42/65 22/48/73 24/49/74
s 4
f 25/114/64 54/113/63 55/115/75 23/126/76
s 14
f 43/85/77 26/86/78 33/87/79 42/88/80
s 11
f 26/41/62 21/47/68 36/52/81 33/53/82
s 8
f 21/55/42 56/50/41 57/99/83 36/100/84
s 9
f 22/48/73 27/42/65 34/54/85 35/57/86
f 35/57/86 34/54/85 30/59/87 32/60/88
s 8
f 36/100/84 57/99/83 58/103/89 31/104/90
s 11
f 33/53/82 36/52/81 31/61/91 29/62/92
s 15
f 42/70/93 33/74/94 37/78/95 41/89/96
s 11
f 33/53/82 29/62/92 39/63/97 37/64/98
s 13
f 29/67/70 59/45/69 60/90/99 39/93/100
s 9
f 30/59/87 34/54/85 38/65/101 40/66/102
s 15
f 34/94/103 81/95/104 82/96/105 38/97/106
s 14
f 27/106/107 80/107/108 81/108/109 34/109/110
s 12
f 18/173/111 79/174/112 80/175/113 27/176/114
s 6
f 94/150/115 45/71/23 69/102/26 93/153/116
s 7
f 46/19/35 45/18/34 94/98/117 95/137/118
s 16
f 47/72/119 46/73/120 95/76/121 96/77/122
s 5
f 96/138/123 89/139/124 48/13/17 47/39/40
f 89/139/124 90/140/125 49/14/18 48/13/17
s 1
f 90/154/126 91/155/127 50/23/2 49/20/1
f 72/105/29 50/23/2 91/155/127 92/156/128
s 10
f 75/157/129 76/158/130 19/159/131 10/160/132
s 4
f 10/177/133 9/178/134 74/191/135 75/190/136
f 73/136/137 74/191/135 9/178/134 28/189/138
f 88/192/139 73/136/137 28/189/138 24/186/140
s 8
f 22/127/141 87/130/142 88/179/143 24/180/144
f 86/181/145 87/130/142 22/127/141 35/182/146
f 85/183/147 86/181/145 35/182/146 32/184/148
s 13
f 30/141/149 84/142/150 85/143/151 32/144/152
f 83/147/153 84/142/150 30/141/149 40/148/154
s 20
f 38/65/155 82/81/156 83/82/157 40/66/158
s off
f 14/27/159 46/19/160 41/89/161 37/78/162
f 46/73/163 47/72/164 60/83/165 41/84/166
f 47/39/167 13/33/168 39/93/169 60/90/170
f 13/22/171 14/21/172 37/64/173 39/63/174
s 11
f 62/91/175 61/92/176 20/35/54 17/32/53
s 21
f 63/161/177 62/162/178 17/163/179 44/164/180
f 64/165/181 78/166/182 79/167/183 18/168/184
s 9
f 65/118/185 64/119/186 18/29/46 19/26/45
s 10
f 76/158/130 77/169/187 65/170/188 19/159/131
f 61/171/189 66/172/190 51/145/50 20/117/49
s 22
f 69/120/191 72/121/192 92/122/193 93/123/194
s 23
f 77/124/195 78/125/196 64/119/197 65/118/198
s off
f 62/162/199 63/161/200 69/102/201 68/101/202
f 63/128/203 66/129/204 72/121/205 69/120/206
f 66/172/207 61/171/208 67/116/209 72/105/210
f 61/92/211 62/91/212 68/12/213 67/11/214
s 4
f 54/113/63 53/46/14 74/191/135 73/136/137
f 75/190/136 74/191/135 53/46/14 52/40/13
s 10
f 52/146/51 51/145/50 76/158/130 75/157/129
f 51/145/50 66/172/190 77/169/187 76/158/130
s 23
f 66/129/215 63/128/216 78/125/196 77/124/195
s 21
f 79/167/183 78/166/182 63/161/177 44/164/180
s 12
f 80/175/113 79/174/112 44/80/57 43/112/60
s 14
f 81/108/109 80/107/108 43/85/77 42/88/80
s 15
f 82/96/105 81/95/104 42/70/93 41/89/96
s 20
f 83/82/157 82/81/156 41/84/217 60/83/218
s 13
f 60/90/99 59/45/69 84/142/150 83/147/153
f 85/143/151 84/142/150 59/45/69 58/69/72
s 8
f 58/103/89 57/99/83 86/181/145 85/183/147
f 57/99/83 56/50/41 87/130/142 86/181/145
f 88/179/143 87/130/142 56/50/41 55/58/44
s 4
f 55/115/75 54/113/63 73/136/137 88/192/139
s 5
f 7/151/219 1/152/220 90/140/125 89/139/124
s 1
f 1/134/221 2/133/222 91/155/127 90/154/126
f 92/156/128 91/155/127 2/133/222 71/132/223
s 22
f 93/123/194 92/122/193 71/10/224 70/9/225
s 6
f 8/131/226 94/150/115 93/153/116 70/135/227
s 7
f 95/137/118 94/98/117 8/187/228 15/188/229
s 16
f 96/77/122 95/76/121 15/25/230 16/24/231
s 5
f 7/151/219 89/139/124 96/138/123 16/185/232
